<svg xmlns="http://www.w3.org/2000/svg" viewBox="0 -6 284 56" width="284" height="56">
  <rect x="3.9" y="25.5" width="6.1" height="15.6" fill="#f0ece4"/>
  <rect x="13.4" y="15.1" width="6.1" height="26.0" fill="#f0ece4"/>
  <rect x="23.0" y="1.2" width="6.1" height="39.9" fill="#f0ece4"/>
  <rect x="32.5" y="9.9" width="6.1" height="31.2" fill="#f0ece4"/>
  <rect x="42.0" y="20.3" width="6.1" height="20.8" fill="#e8562a"/>
  <rect x="76" y="0" width="10" height="44" fill="#f0ece4"/>
  <rect x="76" y="0" width="32" height="10" fill="#f0ece4"/>
  <rect x="76" y="17" width="26" height="10" fill="#f0ece4"/>
  <rect x="76" y="34" width="32" height="10" fill="#f0ece4"/>
  <rect x="120" y="0" width="10" height="44" fill="#f0ece4"/>
  <rect x="120" y="0" width="28" height="10" fill="#f0ece4"/>
  <rect x="142" y="0" width="10" height="26" fill="#f0ece4"/>
  <rect x="120" y="16" width="28" height="10" fill="#f0ece4"/>
  <polygon points="134,26 144,26 152,44 142,44" fill="#f0ece4"/>
  <rect x="164" y="0" width="10" height="44" fill="#f0ece4"/>
  <rect x="164" y="0" width="32" height="10" fill="#f0ece4"/>
  <rect x="164" y="34" width="32" height="10" fill="#f0ece4"/>
  <rect x="186" y="20" width="10" height="24" fill="#f0ece4"/>
  <rect x="180" y="20" width="16" height="10" fill="#f0ece4"/>
  <rect x="208" y="0" width="10" height="44" fill="#f0ece4"/>
  <rect x="230" y="0" width="10" height="44" fill="#f0ece4"/>
  <rect x="208" y="0" width="32" height="10" fill="#f0ece4"/>
  <rect x="208" y="34" width="32" height="10" fill="#f0ece4"/>
  <rect x="252" y="0" width="32" height="10" fill="#f0ece4"/>
  <rect x="252" y="34" width="32" height="10" fill="#f0ece4"/>
  <polygon points="274,10 284,10 262,34 252,34" fill="#f0ece4"/>
</svg>
